<svg xmlns="http://www.w3.org/2000/svg" version="1.1" viewBox="-5.0 -10.0 110.0 135.0">
 <path d="m11.746 1.1719c-6.4766 0-11.746 5.2734-11.746 11.746v11.406c0 6.4766 5.2695 11.746 11.746 11.746h76.508c6.4766 0 11.746-5.2695 11.746-11.746v-11.406c0-6.4727-5.2695-11.746-11.746-11.746zm-8.2227 23.156v-11.41c0-4.5352 3.6875-8.2227 8.2227-8.2227h76.508c4.5352 0 8.2227 3.6875 8.2227 8.2227v11.406c0 4.5352-3.6875 8.2227-8.2227 8.2227l-76.508 0.003906c-4.5352 0-8.2227-3.6914-8.2227-8.2227z"/>
 <path d="m11.746 32.551c-6.4766 0-11.746 5.2695-11.746 11.746v11.406c0 6.4766 5.2695 11.746 11.746 11.746h76.508c6.4766 0 11.746-5.2695 11.746-11.746v-11.406c0-6.4766-5.2695-11.746-11.746-11.746zm-8.2227 23.152v-11.406c0-4.5352 3.6875-8.2227 8.2227-8.2227h76.508c4.5352 0 8.2227 3.6875 8.2227 8.2227v11.406c0 4.5352-3.6875 8.2266-8.2227 8.2266h-76.508c-4.5352-0.003907-8.2227-3.6914-8.2227-8.2266z"/>
 <path d="m11.746 63.926c-6.4766 0-11.746 5.2695-11.746 11.746v11.406c0 6.4766 5.2695 11.746 11.746 11.746h76.508c6.4766 0 11.746-5.2695 11.746-11.746v-11.406c0-6.4766-5.2695-11.746-11.746-11.746zm-8.2227 23.156v-11.406c0-4.5352 3.6875-8.2227 8.2227-8.2227h76.508c4.5352 0 8.2227 3.6875 8.2227 8.2227v11.406c0 4.5352-3.6875 8.2227-8.2227 8.2227h-76.508c-4.5352 0-8.2227-3.6914-8.2227-8.2227z"/>
 <path d="m87.969 23.266h-44.414c-1.2969 0-2.3438-1.0508-2.3438-2.3477v-4.5898c0-1.2969 1.0469-2.3477 2.3438-2.3477h44.414c1.2969 0 2.3477 1.0508 2.3477 2.3477v4.5898c0 1.2969-1.0508 2.3477-2.3477 2.3477"/>
 <path d="m31.609 18.625c0 1.8828-1.5273 3.4102-3.4102 3.4102-1.8867 0-3.4141-1.5273-3.4141-3.4102s1.5273-3.4102 3.4141-3.4102c1.8828 0 3.4102 1.5234 3.4102 3.4102"/>
 <path d="m18.676 18.625c0 1.8828-1.5273 3.4102-3.4102 3.4102-1.8867 0-3.4141-1.5273-3.4141-3.4102s1.5273-3.4102 3.4141-3.4102c1.8828 0 3.4102 1.5234 3.4102 3.4102"/>
 <path d="m12.031 54.641h44.414c1.2969 0 2.3477-1.0508 2.3477-2.3477v-4.5898c0-1.2969-1.0469-2.3477-2.3477-2.3477l-44.414 0.003906c-1.2969 0-2.3477 1.0508-2.3477 2.3477v4.5898c0 1.293 1.0508 2.3438 2.3477 2.3438"/>
 <path d="m68.391 50c0 1.8828 1.5273 3.4102 3.4102 3.4102 1.8867 0 3.4141-1.5273 3.4141-3.4102s-1.5273-3.4102-3.4141-3.4102c-1.8828 0-3.4102 1.5273-3.4102 3.4102"/>
 <path d="m81.324 50c0 1.8828 1.5273 3.4102 3.4102 3.4102 1.8867 0 3.4102-1.5273 3.4102-3.4102s-1.5273-3.4102-3.4102-3.4102-3.4102 1.5273-3.4102 3.4102"/>
 <path d="m87.969 86.02h-44.414c-1.2969 0-2.3438-1.0508-2.3438-2.3477v-4.5898c0-1.2969 1.0469-2.3477 2.3438-2.3477h44.414c1.2969 0 2.3477 1.0508 2.3477 2.3477v4.5898c0 1.2969-1.0508 2.3477-2.3477 2.3477"/>
 <path d="m31.609 81.375c0 1.8828-1.5273 3.4102-3.4102 3.4102-1.8867 0-3.4141-1.5273-3.4141-3.4102s1.5273-3.4102 3.4141-3.4102c1.8828 0 3.4102 1.5273 3.4102 3.4102"/>
 <path d="m18.676 81.375c0 1.8828-1.5273 3.4102-3.4102 3.4102-1.8867 0-3.4141-1.5273-3.4141-3.4102s1.5273-3.4102 3.4141-3.4102c1.8828 0 3.4102 1.5273 3.4102 3.4102"/>
<text x="0.0" y="117.5" font-size="5.0" font-weight="bold" font-family="Arbeit Regular, Helvetica, Arial-Unicode, Arial, Sans-serif" fill="#000000">Created by Seong-Jin Kim</text><text x="0.0" y="122.5" font-size="5.0" font-weight="bold" font-family="Arbeit Regular, Helvetica, Arial-Unicode, Arial, Sans-serif" fill="#000000">from Noun Project</text></svg>